<svg width="72" height="19" viewBox="0 0 72 19" fill="none" xmlns="http://www.w3.org/2000/svg">
<path d="M71.3536 10.3536C71.5488 10.1583 71.5488 9.84171 71.3536 9.64645L68.1716 6.46447C67.9763 6.2692 67.6597 6.2692 67.4645 6.46447C67.2692 6.65973 67.2692 6.97631 67.4645 7.17157L70.2929 10L67.4645 12.8284C67.2692 13.0237 67.2692 13.3403 67.4645 13.5355C67.6597 13.7308 67.9763 13.7308 68.1716 13.5355L71.3536 10.3536ZM39 10.5H71V9.5H39V10.5Z" fill="black"/>
<path d="M8.568 4.06C8.77333 4.06 8.93667 4.13 9.058 4.27C9.18867 4.40067 9.254 4.57333 9.254 4.788V13.342C9.254 13.5567 9.18867 13.734 9.058 13.874C8.92733 14.0047 8.75933 14.07 8.554 14.07C8.31133 14.07 8.12467 13.9767 7.994 13.79L2.506 6.552V13.342C2.506 13.5567 2.44067 13.734 2.31 13.874C2.18867 14.0047 2.02533 14.07 1.82 14.07C1.61467 14.07 1.45133 14.0047 1.33 13.874C1.20867 13.7433 1.148 13.566 1.148 13.342V4.788C1.148 4.57333 1.21333 4.40067 1.344 4.27C1.47467 4.13 1.64267 4.06 1.848 4.06C2.09067 4.06 2.27733 4.15333 2.408 4.34L7.896 11.592V4.788C7.896 4.57333 7.95667 4.40067 8.078 4.27C8.19933 4.13 8.36267 4.06 8.568 4.06ZM16.7323 12.278C16.863 12.278 16.9703 12.3293 17.0543 12.432C17.1383 12.5347 17.1803 12.6653 17.1803 12.824C17.1803 13.0947 17.0123 13.3233 16.6763 13.51C16.3496 13.6967 15.9903 13.8413 15.5983 13.944C15.2156 14.0467 14.847 14.098 14.4923 14.098C13.4096 14.098 12.5556 13.7853 11.9303 13.16C11.305 12.5253 10.9923 11.662 10.9923 10.57C10.9923 9.87 11.1276 9.24933 11.3983 8.708C11.6783 8.16667 12.0656 7.74667 12.5603 7.448C13.0643 7.14933 13.6336 7 14.2683 7C15.183 7 15.9063 7.294 16.4383 7.882C16.9703 8.47 17.2363 9.26333 17.2363 10.262C17.2363 10.6353 17.0683 10.822 16.7323 10.822H12.4063C12.4996 12.2687 13.195 12.992 14.4923 12.992C14.8376 12.992 15.1363 12.9453 15.3883 12.852C15.6403 12.7587 15.9063 12.6373 16.1863 12.488C16.2143 12.4693 16.289 12.432 16.4103 12.376C16.541 12.3107 16.6483 12.278 16.7323 12.278ZM14.2963 8.036C13.755 8.036 13.321 8.20867 12.9943 8.554C12.6676 8.89933 12.4716 9.38467 12.4063 10.01H16.0183C15.9903 9.37533 15.827 8.89 15.5283 8.554C15.239 8.20867 14.8283 8.036 14.2963 8.036ZM24.4801 12.936C24.6201 13.076 24.6901 13.2393 24.6901 13.426C24.6901 13.6033 24.6248 13.7573 24.4941 13.888C24.3728 14.0093 24.2234 14.07 24.0461 14.07C23.8688 14.07 23.7054 13.9907 23.5561 13.832L21.4141 11.424L19.2861 13.832C19.1368 13.9907 18.9734 14.07 18.7961 14.07C18.6188 14.07 18.4648 14.0047 18.3341 13.874C18.2128 13.7433 18.1521 13.5893 18.1521 13.412C18.1521 13.2347 18.2174 13.076 18.3481 12.936L20.5601 10.5L18.4601 8.162C18.3201 8.00333 18.2501 7.84467 18.2501 7.686C18.2501 7.50867 18.3154 7.35933 18.4461 7.238C18.5768 7.10733 18.7261 7.042 18.8941 7.042C19.0714 7.042 19.2348 7.12133 19.3841 7.28L21.4141 9.576L23.4441 7.28C23.5934 7.12133 23.7614 7.042 23.9481 7.042C24.1161 7.042 24.2654 7.10733 24.3961 7.238C24.5268 7.35933 24.5921 7.50867 24.5921 7.686C24.5921 7.86333 24.5221 8.022 24.3821 8.162L22.2821 10.5L24.4801 12.936ZM29.4276 12.992C29.6329 13.0107 29.7776 13.0667 29.8616 13.16C29.9549 13.244 30.0016 13.3653 30.0016 13.524C30.0016 13.7107 29.9269 13.8553 29.7776 13.958C29.6376 14.0513 29.4276 14.0887 29.1476 14.07L28.7696 14.042C28.0136 13.986 27.4489 13.7573 27.0756 13.356C26.7022 12.9453 26.5156 12.3433 26.5156 11.55V8.26H25.6756C25.2649 8.26 25.0596 8.078 25.0596 7.714C25.0596 7.546 25.1109 7.41533 25.2136 7.322C25.3256 7.21933 25.4796 7.168 25.6756 7.168H26.5156V5.726C26.5156 5.51133 26.5762 5.34333 26.6976 5.222C26.8282 5.10067 27.0009 5.04 27.2156 5.04C27.4302 5.04 27.6029 5.10067 27.7336 5.222C27.8642 5.34333 27.9296 5.51133 27.9296 5.726V7.168H29.3156C29.5116 7.168 29.6609 7.21933 29.7636 7.322C29.8756 7.41533 29.9316 7.546 29.9316 7.714C29.9316 7.89133 29.8756 8.02667 29.7636 8.12C29.6609 8.21333 29.5116 8.26 29.3156 8.26H27.9296V11.648C27.9296 12.0867 28.0182 12.4087 28.1956 12.614C28.3822 12.8193 28.6622 12.936 29.0356 12.964L29.4276 12.992Z" fill="#3E3F43"/>
</svg>
