<svg width="96" height="19" viewBox="0 0 96 19" fill="none" xmlns="http://www.w3.org/2000/svg">
<path d="M0.646446 8.64644C0.451183 8.84171 0.451183 9.15829 0.646446 9.35355L3.82843 12.5355C4.02369 12.7308 4.34027 12.7308 4.53553 12.5355C4.7308 12.3403 4.7308 12.0237 4.53553 11.8284L1.70711 9L4.53553 6.17157C4.7308 5.97631 4.7308 5.65973 4.53553 5.46446C4.34027 5.2692 4.02369 5.2692 3.82843 5.46446L0.646446 8.64644ZM33 8.5L1 8.5L1 9.5L33 9.5L33 8.5Z" fill="#C4C4C4"/>
<path d="M42.862 14.07C42.6473 14.07 42.4747 14.0047 42.344 13.874C42.2133 13.7433 42.148 13.566 42.148 13.342V4.83C42.148 4.61533 42.2087 4.44733 42.33 4.326C42.4607 4.19533 42.638 4.13 42.862 4.13H46.236C47.2813 4.13 48.0933 4.38667 48.672 4.9C49.2507 5.41333 49.54 6.14133 49.54 7.084C49.54 8.01733 49.2507 8.74533 48.672 9.268C48.0933 9.79067 47.2813 10.052 46.236 10.052H43.59V13.342C43.59 13.566 43.5247 13.7433 43.394 13.874C43.2727 14.0047 43.0953 14.07 42.862 14.07ZM46.082 8.89C47.4633 8.89 48.154 8.288 48.154 7.084C48.154 5.88933 47.4633 5.292 46.082 5.292H43.59V8.89H46.082ZM54.5601 7.028C55.0081 7 55.2321 7.19133 55.2321 7.602C55.2321 7.80733 55.1808 7.96133 55.0781 8.064C54.9754 8.16667 54.7981 8.22733 54.5461 8.246L54.1261 8.288C53.5381 8.344 53.0994 8.54933 52.8101 8.904C52.5301 9.25867 52.3901 9.688 52.3901 10.192V13.398C52.3901 13.622 52.3248 13.79 52.1941 13.902C52.0634 14.014 51.8954 14.07 51.6901 14.07C51.4848 14.07 51.3121 14.014 51.1721 13.902C51.0414 13.79 50.9761 13.622 50.9761 13.398V7.7C50.9761 7.48533 51.0414 7.322 51.1721 7.21C51.3121 7.08867 51.4848 7.028 51.6901 7.028C51.8768 7.028 52.0308 7.08867 52.1521 7.21C52.2828 7.322 52.3481 7.48067 52.3481 7.686V8.358C52.5348 7.94733 52.8054 7.63467 53.1601 7.42C53.5148 7.20533 53.9161 7.07933 54.3641 7.042L54.5601 7.028ZM61.3143 12.278C61.445 12.278 61.5523 12.3293 61.6363 12.432C61.7203 12.5347 61.7623 12.6653 61.7623 12.824C61.7623 13.0947 61.5943 13.3233 61.2583 13.51C60.9317 13.6967 60.5723 13.8413 60.1803 13.944C59.7977 14.0467 59.429 14.098 59.0743 14.098C57.9917 14.098 57.1377 13.7853 56.5123 13.16C55.887 12.5253 55.5743 11.662 55.5743 10.57C55.5743 9.87 55.7097 9.24933 55.9803 8.708C56.2603 8.16667 56.6477 7.74667 57.1423 7.448C57.6463 7.14933 58.2157 7 58.8503 7C59.765 7 60.4883 7.294 61.0203 7.882C61.5523 8.47 61.8183 9.26333 61.8183 10.262C61.8183 10.6353 61.6503 10.822 61.3143 10.822H56.9883C57.0817 12.2687 57.777 12.992 59.0743 12.992C59.4197 12.992 59.7183 12.9453 59.9703 12.852C60.2223 12.7587 60.4883 12.6373 60.7683 12.488C60.7963 12.4693 60.871 12.432 60.9923 12.376C61.123 12.3107 61.2303 12.278 61.3143 12.278ZM58.8783 8.036C58.337 8.036 57.903 8.20867 57.5763 8.554C57.2497 8.89933 57.0537 9.38467 56.9883 10.01H60.6003C60.5723 9.37533 60.409 8.89 60.1103 8.554C59.821 8.20867 59.4103 8.036 58.8783 8.036ZM68.1388 7.448C68.1948 7.308 68.2741 7.20533 68.3768 7.14C68.4888 7.07467 68.6054 7.042 68.7268 7.042C68.9041 7.042 69.0581 7.10267 69.1888 7.224C69.3288 7.34533 69.3988 7.49 69.3988 7.658C69.3988 7.75133 69.3801 7.84 69.3428 7.924L66.6688 13.594C66.6034 13.7433 66.5008 13.86 66.3608 13.944C66.2301 14.0187 66.0901 14.056 65.9408 14.056C65.7914 14.056 65.6468 14.0187 65.5068 13.944C65.3761 13.86 65.2781 13.7433 65.2128 13.594L62.5388 7.924C62.5014 7.84933 62.4828 7.76067 62.4828 7.658C62.4828 7.49 62.5574 7.34533 62.7068 7.224C62.8561 7.10267 63.0241 7.042 63.2108 7.042C63.4814 7.042 63.6821 7.17267 63.8128 7.434L65.9828 12.25L68.1388 7.448ZM71.2682 14.07C71.0629 14.07 70.8902 14.014 70.7502 13.902C70.6196 13.79 70.5542 13.622 70.5542 13.398V7.714C70.5542 7.49 70.6196 7.322 70.7502 7.21C70.8902 7.08867 71.0629 7.028 71.2682 7.028C71.4736 7.028 71.6416 7.08867 71.7722 7.21C71.9029 7.322 71.9682 7.49 71.9682 7.714V13.398C71.9682 13.622 71.9029 13.79 71.7722 13.902C71.6416 14.014 71.4736 14.07 71.2682 14.07ZM71.2682 5.656C70.9976 5.656 70.7829 5.58133 70.6242 5.432C70.4656 5.28267 70.3862 5.08667 70.3862 4.844C70.3862 4.60133 70.4656 4.41 70.6242 4.27C70.7829 4.12067 70.9976 4.046 71.2682 4.046C71.5296 4.046 71.7396 4.12067 71.8982 4.27C72.0662 4.41 72.1502 4.60133 72.1502 4.844C72.1502 5.08667 72.0709 5.28267 71.9122 5.432C71.7536 5.58133 71.5389 5.656 71.2682 5.656ZM76.9128 14.098C76.2408 14.098 75.6482 13.9533 75.1348 13.664C74.6308 13.3747 74.2388 12.964 73.9588 12.432C73.6882 11.8907 73.5528 11.2653 73.5528 10.556C73.5528 9.83733 73.6882 9.212 73.9588 8.68C74.2388 8.13867 74.6308 7.72333 75.1348 7.434C75.6482 7.14467 76.2408 7 76.9128 7C77.5848 7 78.1728 7.14467 78.6768 7.434C79.1902 7.72333 79.5822 8.13867 79.8528 8.68C80.1328 9.212 80.2728 9.83733 80.2728 10.556C80.2728 11.2653 80.1328 11.8907 79.8528 12.432C79.5822 12.964 79.1902 13.3747 78.6768 13.664C78.1728 13.9533 77.5848 14.098 76.9128 14.098ZM76.9128 12.978C77.5382 12.978 78.0142 12.7727 78.3408 12.362C78.6768 11.9513 78.8448 11.3493 78.8448 10.556C78.8448 9.772 78.6768 9.17467 78.3408 8.764C78.0048 8.344 77.5288 8.134 76.9128 8.134C76.2968 8.134 75.8208 8.344 75.4848 8.764C75.1488 9.17467 74.9808 9.772 74.9808 10.556C74.9808 11.3493 75.1442 11.9513 75.4708 12.362C75.8068 12.7727 76.2875 12.978 76.9128 12.978ZM87.1392 7.028C87.3539 7.028 87.5219 7.08867 87.6432 7.21C87.7739 7.33133 87.8392 7.49933 87.8392 7.714V13.412C87.8392 13.608 87.7739 13.7667 87.6432 13.888C87.5125 14.0093 87.3399 14.07 87.1252 14.07C86.9292 14.07 86.7705 14.014 86.6492 13.902C86.5279 13.7807 86.4672 13.622 86.4672 13.426V12.894C86.2525 13.286 85.9539 13.5847 85.5712 13.79C85.1979 13.9953 84.7779 14.098 84.3112 14.098C82.6499 14.098 81.8192 13.1833 81.8192 11.354V7.714C81.8192 7.49933 81.8799 7.33133 82.0012 7.21C82.1319 7.08867 82.3092 7.028 82.5332 7.028C82.7479 7.028 82.9159 7.08867 83.0372 7.21C83.1679 7.33133 83.2332 7.49933 83.2332 7.714V11.34C83.2332 11.8907 83.3452 12.2967 83.5692 12.558C83.7932 12.8193 84.1385 12.95 84.6052 12.95C85.1559 12.95 85.5945 12.7727 85.9212 12.418C86.2572 12.0633 86.4252 11.592 86.4252 11.004V7.714C86.4252 7.50867 86.4905 7.34533 86.6212 7.224C86.7519 7.09333 86.9245 7.028 87.1392 7.028ZM92.1979 14.098C91.2459 14.098 90.4666 13.902 89.8599 13.51C89.6919 13.4073 89.5706 13.3 89.4959 13.188C89.4306 13.076 89.3979 12.95 89.3979 12.81C89.3979 12.6607 89.4399 12.5347 89.5239 12.432C89.6079 12.3293 89.7152 12.278 89.8459 12.278C89.9672 12.278 90.1586 12.3527 90.4199 12.502C90.6999 12.6513 90.9706 12.7727 91.2319 12.866C91.5026 12.9593 91.8386 13.006 92.2399 13.006C92.6879 13.006 93.0379 12.9267 93.2899 12.768C93.5419 12.6093 93.6679 12.3853 93.6679 12.096C93.6679 11.9093 93.6166 11.76 93.5139 11.648C93.4206 11.536 93.2526 11.438 93.0099 11.354C92.7672 11.2607 92.4079 11.1627 91.9319 11.06C91.1106 10.8827 90.5179 10.6447 90.1539 10.346C89.7992 10.038 89.6219 9.62267 89.6219 9.1C89.6219 8.69867 89.7386 8.33933 89.9719 8.022C90.2052 7.69533 90.5272 7.44333 90.9379 7.266C91.3486 7.08867 91.8152 7 92.3379 7C92.7112 7 93.0752 7.05133 93.4299 7.154C93.7846 7.24733 94.0972 7.38733 94.3679 7.574C94.6759 7.77933 94.8299 8.01733 94.8299 8.288C94.8299 8.43733 94.7832 8.56333 94.6899 8.666C94.6059 8.76867 94.5032 8.82 94.3819 8.82C94.2979 8.82 94.2139 8.80133 94.1299 8.764C94.0459 8.72667 93.9339 8.666 93.7939 8.582C93.5419 8.43267 93.3039 8.316 93.0799 8.232C92.8652 8.148 92.5946 8.106 92.2679 8.106C91.8759 8.106 91.5586 8.19 91.3159 8.358C91.0826 8.526 90.9659 8.75467 90.9659 9.044C90.9659 9.30533 91.0732 9.51067 91.2879 9.66C91.5119 9.8 91.9272 9.93533 92.5339 10.066C93.1592 10.1967 93.6492 10.346 94.0039 10.514C94.3586 10.682 94.6106 10.892 94.7599 11.144C94.9186 11.3867 94.9979 11.6993 94.9979 12.082C94.9979 12.6887 94.7412 13.1787 94.2279 13.552C93.7239 13.916 93.0472 14.098 92.1979 14.098Z" fill="#C4C4C4"/>
</svg>
